<?xml version="1.0" encoding="utf-8" standalone="no"?>
<!DOCTYPE svg PUBLIC "-//W3C//DTD SVG 1.1//EN"
  "http://www.w3.org/Graphics/SVG/1.1/DTD/svg11.dtd">
<svg xmlns:xlink="http://www.w3.org/1999/xlink" width="898.805574pt" height="673.547256pt" viewBox="0 0 898.805574 673.547256" xmlns="http://www.w3.org/2000/svg" version="1.1">
 <metadata>
  <rdf:RDF xmlns:dc="http://purl.org/dc/elements/1.1/" xmlns:cc="http://creativecommons.org/ns#" xmlns:rdf="http://www.w3.org/1999/02/22-rdf-syntax-ns#">
   <cc:Work>
    <dc:type rdf:resource="http://purl.org/dc/dcmitype/StillImage"/>
    <dc:date>2026-05-11T21:19:37.678942</dc:date>
    <dc:format>image/svg+xml</dc:format>
    <dc:creator>
     <cc:Agent>
      <dc:title>Matplotlib v3.10.0, https://matplotlib.org/</dc:title>
     </cc:Agent>
    </dc:creator>
   </cc:Work>
  </rdf:RDF>
 </metadata>
 <defs>
  <style type="text/css">*{stroke-linejoin: round; stroke-linecap: butt}</style>
 </defs>
 <g id="figure_1">
  <g id="patch_1">
   <path d="M 0 673.547256 
L 898.805574 673.547256 
L 898.805574 0 
L 0 0 
z
" style="fill: #ffffff"/>
  </g>
  <g id="axes_1">
   <g id="patch_2">
    <path d="M 585.38986 233.892987 
C 564.843824 207.915252 538.681604 186.922057 508.869845 172.491486 
C 479.058087 158.060915 446.362981 150.563848 413.242257 150.563848 
L 413.242257 370.046149 
z
" style="fill: #a02020; stroke: #ffffff; stroke-width: 2; stroke-linejoin: miter"/>
   </g>
   <g id="patch_3">
    <path d="M 608.732188 270.265552 
C 605.451568 263.838169 601.855961 257.576487 597.958471 251.503327 
C 594.060981 245.430166 589.866348 239.552913 585.38986 233.892987 
L 413.242257 370.046149 
z
" style="fill: #e04545; stroke: #ffffff; stroke-width: 2; stroke-linejoin: miter"/>
   </g>
   <g id="patch_4">
    <path d="M 610.118437 273.029397 
C 609.890644 272.567136 609.661223 272.105678 609.43018 271.645033 
C 609.199136 271.184388 608.96647 270.724558 608.732188 270.265552 
L 413.242257 370.046149 
z
" style="fill: #f59595; stroke: #ffffff; stroke-width: 2; stroke-linejoin: miter"/>
   </g>
   <g id="patch_5">
    <path d="M 625.312426 313.488887 
C 623.452918 306.516374 621.250674 299.639808 618.713719 292.884249 
C 616.176765 286.128691 613.308186 279.502357 610.118437 273.029397 
L 413.242257 370.046149 
z
" style="fill: #ff7f0e; stroke: #ffffff; stroke-width: 2; stroke-linejoin: miter"/>
   </g>
   <g id="patch_6">
    <path d="M 583.454727 508.610919 
C 605.353606 481.710415 620.566665 449.997813 627.842248 416.082272 
C 635.117831 382.166731 634.250778 347.004614 625.312426 313.488887 
L 413.242257 370.046149 
z
" style="fill: #1f77b4; stroke: #ffffff; stroke-width: 2; stroke-linejoin: miter"/>
   </g>
   <g id="patch_7">
    <path d="M 222.142729 477.997299 
C 239.717549 509.108962 264.62699 535.463176 294.699427 554.762359 
C 324.771864 574.061541 359.107226 585.728065 394.712127 588.744834 
C 430.317028 591.761603 466.125811 586.038325 499.016636 572.07396 
C 531.907462 558.109595 560.895904 536.322097 583.454727 508.610919 
L 413.242257 370.046149 
z
" style="fill: #2ca02c; stroke: #ffffff; stroke-width: 2; stroke-linejoin: miter"/>
   </g>
   <g id="patch_8">
    <path d="M 413.242274 150.563848 
C 374.892629 150.563845 337.204414 160.614962 303.947716 179.711749 
C 270.691018 198.808536 243.013018 226.292255 223.682446 259.413611 
C 204.351873 292.534967 194.035532 330.151448 193.765401 368.500141 
C 193.49527 406.848834 203.280669 444.606912 222.142729 477.997299 
L 413.242257 370.046149 
z
" style="fill: #cccccc; stroke: #ffffff; stroke-width: 2; stroke-linejoin: miter"/>
   </g>
   <g id="matplotlib.axis_1"/>
   <g id="matplotlib.axis_2"/>
   <g id="patch_9">
    <path d="M 665.25991 125.746097 
Q 584.674188 154.057658 504.088466 182.369219 
" style="fill: none; stroke: #666666; stroke-width: 0.8; stroke-linecap: round"/>
   </g>
   <g id="text_1">
    <!-- C-term: amidation (neuropeptide) (64)  —  14% -->
    <g transform="translate(535.64557 120.798681) scale(0.14 -0.14)">
     <defs>
      <path id="Arial-BoldMT-43" d="M 3397 1684 
L 4294 1400 
Q 4088 650 3608 286 
Q 3128 -78 2391 -78 
Q 1478 -78 890 545 
Q 303 1169 303 2250 
Q 303 3394 893 4026 
Q 1484 4659 2447 4659 
Q 3288 4659 3813 4163 
Q 4125 3869 4281 3319 
L 3366 3100 
Q 3284 3456 3026 3662 
Q 2769 3869 2400 3869 
Q 1891 3869 1573 3503 
Q 1256 3138 1256 2319 
Q 1256 1450 1568 1081 
Q 1881 713 2381 713 
Q 2750 713 3015 947 
Q 3281 1181 3397 1684 
z
" transform="scale(0.015625)"/>
      <path id="Arial-BoldMT-2d" d="M 359 1222 
L 359 2100 
L 2084 2100 
L 2084 1222 
L 359 1222 
z
" transform="scale(0.015625)"/>
      <path id="Arial-BoldMT-74" d="M 1981 3319 
L 1981 2619 
L 1381 2619 
L 1381 1281 
Q 1381 875 1398 808 
Q 1416 741 1477 697 
Q 1538 653 1625 653 
Q 1747 653 1978 738 
L 2053 56 
Q 1747 -75 1359 -75 
Q 1122 -75 931 4 
Q 741 84 652 211 
Q 563 338 528 553 
Q 500 706 500 1172 
L 500 2619 
L 97 2619 
L 97 3319 
L 500 3319 
L 500 3978 
L 1381 4491 
L 1381 3319 
L 1981 3319 
z
" transform="scale(0.015625)"/>
      <path id="Arial-BoldMT-65" d="M 2381 1056 
L 3256 909 
Q 3088 428 2723 176 
Q 2359 -75 1813 -75 
Q 947 -75 531 491 
Q 203 944 203 1634 
Q 203 2459 634 2926 
Q 1066 3394 1725 3394 
Q 2466 3394 2894 2905 
Q 3322 2416 3303 1406 
L 1103 1406 
Q 1113 1016 1316 798 
Q 1519 581 1822 581 
Q 2028 581 2168 693 
Q 2309 806 2381 1056 
z
M 2431 1944 
Q 2422 2325 2234 2523 
Q 2047 2722 1778 2722 
Q 1491 2722 1303 2513 
Q 1116 2303 1119 1944 
L 2431 1944 
z
" transform="scale(0.015625)"/>
      <path id="Arial-BoldMT-72" d="M 1300 0 
L 422 0 
L 422 3319 
L 1238 3319 
L 1238 2847 
Q 1447 3181 1614 3287 
Q 1781 3394 1994 3394 
Q 2294 3394 2572 3228 
L 2300 2463 
Q 2078 2606 1888 2606 
Q 1703 2606 1575 2504 
Q 1447 2403 1373 2137 
Q 1300 1872 1300 1025 
L 1300 0 
z
" transform="scale(0.015625)"/>
      <path id="Arial-BoldMT-6d" d="M 394 3319 
L 1203 3319 
L 1203 2866 
Q 1638 3394 2238 3394 
Q 2556 3394 2790 3262 
Q 3025 3131 3175 2866 
Q 3394 3131 3647 3262 
Q 3900 3394 4188 3394 
Q 4553 3394 4806 3245 
Q 5059 3097 5184 2809 
Q 5275 2597 5275 2122 
L 5275 0 
L 4397 0 
L 4397 1897 
Q 4397 2391 4306 2534 
Q 4184 2722 3931 2722 
Q 3747 2722 3584 2609 
Q 3422 2497 3350 2280 
Q 3278 2063 3278 1594 
L 3278 0 
L 2400 0 
L 2400 1819 
Q 2400 2303 2353 2443 
Q 2306 2584 2207 2653 
Q 2109 2722 1941 2722 
Q 1738 2722 1575 2612 
Q 1413 2503 1342 2297 
Q 1272 2091 1272 1613 
L 1272 0 
L 394 0 
L 394 3319 
z
" transform="scale(0.015625)"/>
      <path id="Arial-BoldMT-3a" d="M 628 2441 
L 628 3319 
L 1506 3319 
L 1506 2441 
L 628 2441 
z
M 628 0 
L 628 878 
L 1506 878 
L 1506 0 
L 628 0 
z
" transform="scale(0.015625)"/>
      <path id="Arial-BoldMT-20" transform="scale(0.015625)"/>
      <path id="Arial-BoldMT-61" d="M 1116 2306 
L 319 2450 
Q 453 2931 781 3162 
Q 1109 3394 1756 3394 
Q 2344 3394 2631 3255 
Q 2919 3116 3036 2902 
Q 3153 2688 3153 2116 
L 3144 1091 
Q 3144 653 3186 445 
Q 3228 238 3344 0 
L 2475 0 
Q 2441 88 2391 259 
Q 2369 338 2359 363 
Q 2134 144 1878 34 
Q 1622 -75 1331 -75 
Q 819 -75 523 203 
Q 228 481 228 906 
Q 228 1188 362 1408 
Q 497 1628 739 1745 
Q 981 1863 1438 1950 
Q 2053 2066 2291 2166 
L 2291 2253 
Q 2291 2506 2166 2614 
Q 2041 2722 1694 2722 
Q 1459 2722 1328 2630 
Q 1197 2538 1116 2306 
z
M 2291 1594 
Q 2122 1538 1756 1459 
Q 1391 1381 1278 1306 
Q 1106 1184 1106 997 
Q 1106 813 1243 678 
Q 1381 544 1594 544 
Q 1831 544 2047 700 
Q 2206 819 2256 991 
Q 2291 1103 2291 1419 
L 2291 1594 
z
" transform="scale(0.015625)"/>
      <path id="Arial-BoldMT-69" d="M 459 3769 
L 459 4581 
L 1338 4581 
L 1338 3769 
L 459 3769 
z
M 459 0 
L 459 3319 
L 1338 3319 
L 1338 0 
L 459 0 
z
" transform="scale(0.015625)"/>
      <path id="Arial-BoldMT-64" d="M 3503 0 
L 2688 0 
L 2688 488 
Q 2484 203 2207 64 
Q 1931 -75 1650 -75 
Q 1078 -75 670 386 
Q 263 847 263 1672 
Q 263 2516 659 2955 
Q 1056 3394 1663 3394 
Q 2219 3394 2625 2931 
L 2625 4581 
L 3503 4581 
L 3503 0 
z
M 1159 1731 
Q 1159 1200 1306 963 
Q 1519 619 1900 619 
Q 2203 619 2415 876 
Q 2628 1134 2628 1647 
Q 2628 2219 2422 2470 
Q 2216 2722 1894 2722 
Q 1581 2722 1370 2473 
Q 1159 2225 1159 1731 
z
" transform="scale(0.015625)"/>
      <path id="Arial-BoldMT-6f" d="M 256 1706 
Q 256 2144 472 2553 
Q 688 2963 1083 3178 
Q 1478 3394 1966 3394 
Q 2719 3394 3200 2905 
Q 3681 2416 3681 1669 
Q 3681 916 3195 420 
Q 2709 -75 1972 -75 
Q 1516 -75 1102 131 
Q 688 338 472 736 
Q 256 1134 256 1706 
z
M 1156 1659 
Q 1156 1166 1390 903 
Q 1625 641 1969 641 
Q 2313 641 2545 903 
Q 2778 1166 2778 1666 
Q 2778 2153 2545 2415 
Q 2313 2678 1969 2678 
Q 1625 2678 1390 2415 
Q 1156 2153 1156 1659 
z
" transform="scale(0.015625)"/>
      <path id="Arial-BoldMT-6e" d="M 3478 0 
L 2600 0 
L 2600 1694 
Q 2600 2231 2544 2389 
Q 2488 2547 2361 2634 
Q 2234 2722 2056 2722 
Q 1828 2722 1647 2597 
Q 1466 2472 1398 2265 
Q 1331 2059 1331 1503 
L 1331 0 
L 453 0 
L 453 3319 
L 1269 3319 
L 1269 2831 
Q 1703 3394 2363 3394 
Q 2653 3394 2893 3289 
Q 3134 3184 3257 3021 
Q 3381 2859 3429 2653 
Q 3478 2447 3478 2063 
L 3478 0 
z
" transform="scale(0.015625)"/>
      <path id="Arial-BoldMT-28" d="M 1916 -1347 
L 1313 -1347 
Q 834 -625 584 153 
Q 334 931 334 1659 
Q 334 2563 644 3369 
Q 913 4069 1325 4659 
L 1925 4659 
Q 1497 3713 1336 3048 
Q 1175 2384 1175 1641 
Q 1175 1128 1270 590 
Q 1366 53 1531 -431 
Q 1641 -750 1916 -1347 
z
" transform="scale(0.015625)"/>
      <path id="Arial-BoldMT-75" d="M 2644 0 
L 2644 497 
Q 2463 231 2167 78 
Q 1872 -75 1544 -75 
Q 1209 -75 943 72 
Q 678 219 559 484 
Q 441 750 441 1219 
L 441 3319 
L 1319 3319 
L 1319 1794 
Q 1319 1094 1367 936 
Q 1416 778 1544 686 
Q 1672 594 1869 594 
Q 2094 594 2272 717 
Q 2450 841 2515 1023 
Q 2581 1206 2581 1919 
L 2581 3319 
L 3459 3319 
L 3459 0 
L 2644 0 
z
" transform="scale(0.015625)"/>
      <path id="Arial-BoldMT-70" d="M 434 3319 
L 1253 3319 
L 1253 2831 
Q 1413 3081 1684 3237 
Q 1956 3394 2288 3394 
Q 2866 3394 3269 2941 
Q 3672 2488 3672 1678 
Q 3672 847 3265 386 
Q 2859 -75 2281 -75 
Q 2006 -75 1782 34 
Q 1559 144 1313 409 
L 1313 -1263 
L 434 -1263 
L 434 3319 
z
M 1303 1716 
Q 1303 1156 1525 889 
Q 1747 622 2066 622 
Q 2372 622 2575 867 
Q 2778 1113 2778 1672 
Q 2778 2194 2568 2447 
Q 2359 2700 2050 2700 
Q 1728 2700 1515 2451 
Q 1303 2203 1303 1716 
z
" transform="scale(0.015625)"/>
      <path id="Arial-BoldMT-29" d="M 216 -1347 
Q 475 -791 581 -494 
Q 688 -197 778 190 
Q 869 578 912 926 
Q 956 1275 956 1641 
Q 956 2384 797 3048 
Q 638 3713 209 4659 
L 806 4659 
Q 1278 3988 1539 3234 
Q 1800 2481 1800 1706 
Q 1800 1053 1594 306 
Q 1359 -531 822 -1347 
L 216 -1347 
z
" transform="scale(0.015625)"/>
      <path id="Arial-BoldMT-36" d="M 3247 3459 
L 2397 3366 
Q 2366 3628 2234 3753 
Q 2103 3878 1894 3878 
Q 1616 3878 1423 3628 
Q 1231 3378 1181 2588 
Q 1509 2975 1997 2975 
Q 2547 2975 2939 2556 
Q 3331 2138 3331 1475 
Q 3331 772 2918 347 
Q 2506 -78 1859 -78 
Q 1166 -78 719 461 
Q 272 1000 272 2228 
Q 272 3488 737 4044 
Q 1203 4600 1947 4600 
Q 2469 4600 2811 4308 
Q 3153 4016 3247 3459 
z
M 1256 1544 
Q 1256 1116 1453 883 
Q 1650 650 1903 650 
Q 2147 650 2309 840 
Q 2472 1031 2472 1466 
Q 2472 1913 2297 2120 
Q 2122 2328 1859 2328 
Q 1606 2328 1431 2129 
Q 1256 1931 1256 1544 
z
" transform="scale(0.015625)"/>
      <path id="Arial-BoldMT-34" d="M 1994 0 
L 1994 922 
L 119 922 
L 119 1691 
L 2106 4600 
L 2844 4600 
L 2844 1694 
L 3413 1694 
L 3413 922 
L 2844 922 
L 2844 0 
L 1994 0 
z
M 1994 1694 
L 1994 3259 
L 941 1694 
L 1994 1694 
z
" transform="scale(0.015625)"/>
      <path id="Arial-BoldMT-2014" d="M 0 1331 
L 0 1988 
L 6400 1988 
L 6400 1331 
L 0 1331 
z
" transform="scale(0.015625)"/>
      <path id="Arial-BoldMT-31" d="M 2519 0 
L 1641 0 
L 1641 3309 
Q 1159 2859 506 2644 
L 506 3441 
Q 850 3553 1253 3867 
Q 1656 4181 1806 4600 
L 2519 4600 
L 2519 0 
z
" transform="scale(0.015625)"/>
      <path id="Arial-BoldMT-25" d="M 278 3450 
Q 278 4066 548 4362 
Q 819 4659 1281 4659 
Q 1759 4659 2029 4364 
Q 2300 4069 2300 3450 
Q 2300 2834 2029 2537 
Q 1759 2241 1297 2241 
Q 819 2241 548 2536 
Q 278 2831 278 3450 
z
M 963 3456 
Q 963 3009 1066 2856 
Q 1144 2744 1281 2744 
Q 1422 2744 1500 2856 
Q 1600 3009 1600 3456 
Q 1600 3903 1500 4053 
Q 1422 4169 1281 4169 
Q 1144 4169 1066 4056 
Q 963 3903 963 3456 
z
M 1950 -175 
L 1300 -175 
L 3741 4659 
L 4372 4659 
L 1950 -175 
z
M 3369 1028 
Q 3369 1644 3639 1941 
Q 3909 2238 4378 2238 
Q 4850 2238 5120 1941 
Q 5391 1644 5391 1028 
Q 5391 409 5120 112 
Q 4850 -184 4388 -184 
Q 3909 -184 3639 112 
Q 3369 409 3369 1028 
z
M 4053 1031 
Q 4053 584 4156 434 
Q 4234 319 4372 319 
Q 4513 319 4588 431 
Q 4691 584 4691 1031 
Q 4691 1478 4591 1631 
Q 4513 1744 4372 1744 
Q 4231 1744 4156 1631 
Q 4053 1478 4053 1031 
z
" transform="scale(0.015625)"/>
     </defs>
     <use xlink:href="#Arial-BoldMT-43"/>
     <use xlink:href="#Arial-BoldMT-2d" transform="translate(72.216797 0)"/>
     <use xlink:href="#Arial-BoldMT-74" transform="translate(105.517578 0)"/>
     <use xlink:href="#Arial-BoldMT-65" transform="translate(138.818359 0)"/>
     <use xlink:href="#Arial-BoldMT-72" transform="translate(194.433594 0)"/>
     <use xlink:href="#Arial-BoldMT-6d" transform="translate(233.349609 0)"/>
     <use xlink:href="#Arial-BoldMT-3a" transform="translate(322.265625 0)"/>
     <use xlink:href="#Arial-BoldMT-20" transform="translate(355.566406 0)"/>
     <use xlink:href="#Arial-BoldMT-61" transform="translate(383.349609 0)"/>
     <use xlink:href="#Arial-BoldMT-6d" transform="translate(438.964844 0)"/>
     <use xlink:href="#Arial-BoldMT-69" transform="translate(527.880859 0)"/>
     <use xlink:href="#Arial-BoldMT-64" transform="translate(555.664062 0)"/>
     <use xlink:href="#Arial-BoldMT-61" transform="translate(616.748047 0)"/>
     <use xlink:href="#Arial-BoldMT-74" transform="translate(672.363281 0)"/>
     <use xlink:href="#Arial-BoldMT-69" transform="translate(705.664062 0)"/>
     <use xlink:href="#Arial-BoldMT-6f" transform="translate(733.447266 0)"/>
     <use xlink:href="#Arial-BoldMT-6e" transform="translate(794.53125 0)"/>
     <use xlink:href="#Arial-BoldMT-20" transform="translate(855.615234 0)"/>
     <use xlink:href="#Arial-BoldMT-28" transform="translate(883.398438 0)"/>
     <use xlink:href="#Arial-BoldMT-6e" transform="translate(916.699219 0)"/>
     <use xlink:href="#Arial-BoldMT-65" transform="translate(977.783203 0)"/>
     <use xlink:href="#Arial-BoldMT-75" transform="translate(1033.398438 0)"/>
     <use xlink:href="#Arial-BoldMT-72" transform="translate(1094.482422 0)"/>
     <use xlink:href="#Arial-BoldMT-6f" transform="translate(1133.398438 0)"/>
     <use xlink:href="#Arial-BoldMT-70" transform="translate(1194.482422 0)"/>
     <use xlink:href="#Arial-BoldMT-65" transform="translate(1255.566406 0)"/>
     <use xlink:href="#Arial-BoldMT-70" transform="translate(1311.181641 0)"/>
     <use xlink:href="#Arial-BoldMT-74" transform="translate(1372.265625 0)"/>
     <use xlink:href="#Arial-BoldMT-69" transform="translate(1405.566406 0)"/>
     <use xlink:href="#Arial-BoldMT-64" transform="translate(1433.349609 0)"/>
     <use xlink:href="#Arial-BoldMT-65" transform="translate(1494.433594 0)"/>
     <use xlink:href="#Arial-BoldMT-29" transform="translate(1550.048828 0)"/>
     <use xlink:href="#Arial-BoldMT-20" transform="translate(1583.349609 0)"/>
     <use xlink:href="#Arial-BoldMT-28" transform="translate(1611.132812 0)"/>
     <use xlink:href="#Arial-BoldMT-36" transform="translate(1644.433594 0)"/>
     <use xlink:href="#Arial-BoldMT-34" transform="translate(1700.048828 0)"/>
     <use xlink:href="#Arial-BoldMT-29" transform="translate(1755.664062 0)"/>
     <use xlink:href="#Arial-BoldMT-20" transform="translate(1788.964844 0)"/>
     <use xlink:href="#Arial-BoldMT-20" transform="translate(1816.748047 0)"/>
     <use xlink:href="#Arial-BoldMT-2014" transform="translate(1844.53125 0)"/>
     <use xlink:href="#Arial-BoldMT-20" transform="translate(1944.53125 0)"/>
     <use xlink:href="#Arial-BoldMT-20" transform="translate(1972.314453 0)"/>
     <use xlink:href="#Arial-BoldMT-31" transform="translate(2000.097656 0)"/>
     <use xlink:href="#Arial-BoldMT-34" transform="translate(2055.712891 0)"/>
     <use xlink:href="#Arial-BoldMT-25" transform="translate(2111.328125 0)"/>
    </g>
   </g>
   <g id="patch_10">
    <path d="M 730.794631 226.879988 
Q 659.758646 242.155228 588.722661 257.430468 
" style="fill: none; stroke: #666666; stroke-width: 0.8; stroke-linecap: round"/>
   </g>
   <g id="text_2">
    <!-- C-term: TNF superfamily (14)  —  3% -->
    <g transform="translate(649.679011 221.933836) scale(0.14 -0.14)">
     <defs>
      <path id="Arial-BoldMT-54" d="M 1497 0 
L 1497 3806 
L 138 3806 
L 138 4581 
L 3778 4581 
L 3778 3806 
L 2422 3806 
L 2422 0 
L 1497 0 
z
" transform="scale(0.015625)"/>
      <path id="Arial-BoldMT-4e" d="M 475 0 
L 475 4581 
L 1375 4581 
L 3250 1522 
L 3250 4581 
L 4109 4581 
L 4109 0 
L 3181 0 
L 1334 2988 
L 1334 0 
L 475 0 
z
" transform="scale(0.015625)"/>
      <path id="Arial-BoldMT-46" d="M 472 0 
L 472 4581 
L 3613 4581 
L 3613 3806 
L 1397 3806 
L 1397 2722 
L 3309 2722 
L 3309 1947 
L 1397 1947 
L 1397 0 
L 472 0 
z
" transform="scale(0.015625)"/>
      <path id="Arial-BoldMT-73" d="M 150 947 
L 1031 1081 
Q 1088 825 1259 692 
Q 1431 559 1741 559 
Q 2081 559 2253 684 
Q 2369 772 2369 919 
Q 2369 1019 2306 1084 
Q 2241 1147 2013 1200 
Q 950 1434 666 1628 
Q 272 1897 272 2375 
Q 272 2806 612 3100 
Q 953 3394 1669 3394 
Q 2350 3394 2681 3172 
Q 3013 2950 3138 2516 
L 2309 2363 
Q 2256 2556 2107 2659 
Q 1959 2763 1684 2763 
Q 1338 2763 1188 2666 
Q 1088 2597 1088 2488 
Q 1088 2394 1175 2328 
Q 1294 2241 1995 2081 
Q 2697 1922 2975 1691 
Q 3250 1456 3250 1038 
Q 3250 581 2869 253 
Q 2488 -75 1741 -75 
Q 1063 -75 667 200 
Q 272 475 150 947 
z
" transform="scale(0.015625)"/>
      <path id="Arial-BoldMT-66" d="M 75 3319 
L 563 3319 
L 563 3569 
Q 563 3988 652 4194 
Q 741 4400 980 4529 
Q 1219 4659 1584 4659 
Q 1959 4659 2319 4547 
L 2200 3934 
Q 1991 3984 1797 3984 
Q 1606 3984 1523 3895 
Q 1441 3806 1441 3553 
L 1441 3319 
L 2097 3319 
L 2097 2628 
L 1441 2628 
L 1441 0 
L 563 0 
L 563 2628 
L 75 2628 
L 75 3319 
z
" transform="scale(0.015625)"/>
      <path id="Arial-BoldMT-6c" d="M 459 0 
L 459 4581 
L 1338 4581 
L 1338 0 
L 459 0 
z
" transform="scale(0.015625)"/>
      <path id="Arial-BoldMT-79" d="M 44 3319 
L 978 3319 
L 1772 963 
L 2547 3319 
L 3456 3319 
L 2284 125 
L 2075 -453 
Q 1959 -744 1854 -897 
Q 1750 -1050 1614 -1145 
Q 1478 -1241 1279 -1294 
Q 1081 -1347 831 -1347 
Q 578 -1347 334 -1294 
L 256 -606 
Q 463 -647 628 -647 
Q 934 -647 1081 -467 
Q 1228 -288 1306 -9 
L 44 3319 
z
" transform="scale(0.015625)"/>
      <path id="Arial-BoldMT-33" d="M 241 1216 
L 1091 1319 
Q 1131 994 1309 822 
Q 1488 650 1741 650 
Q 2013 650 2198 856 
Q 2384 1063 2384 1413 
Q 2384 1744 2206 1937 
Q 2028 2131 1772 2131 
Q 1603 2131 1369 2066 
L 1466 2781 
Q 1822 2772 2009 2936 
Q 2197 3100 2197 3372 
Q 2197 3603 2059 3740 
Q 1922 3878 1694 3878 
Q 1469 3878 1309 3722 
Q 1150 3566 1116 3266 
L 306 3403 
Q 391 3819 561 4067 
Q 731 4316 1036 4458 
Q 1341 4600 1719 4600 
Q 2366 4600 2756 4188 
Q 3078 3850 3078 3425 
Q 3078 2822 2419 2463 
Q 2813 2378 3048 2084 
Q 3284 1791 3284 1375 
Q 3284 772 2843 347 
Q 2403 -78 1747 -78 
Q 1125 -78 715 280 
Q 306 638 241 1216 
z
" transform="scale(0.015625)"/>
     </defs>
     <use xlink:href="#Arial-BoldMT-43"/>
     <use xlink:href="#Arial-BoldMT-2d" transform="translate(72.216797 0)"/>
     <use xlink:href="#Arial-BoldMT-74" transform="translate(105.517578 0)"/>
     <use xlink:href="#Arial-BoldMT-65" transform="translate(138.818359 0)"/>
     <use xlink:href="#Arial-BoldMT-72" transform="translate(194.433594 0)"/>
     <use xlink:href="#Arial-BoldMT-6d" transform="translate(233.349609 0)"/>
     <use xlink:href="#Arial-BoldMT-3a" transform="translate(322.265625 0)"/>
     <use xlink:href="#Arial-BoldMT-20" transform="translate(355.566406 0)"/>
     <use xlink:href="#Arial-BoldMT-54" transform="translate(383.349609 0)"/>
     <use xlink:href="#Arial-BoldMT-4e" transform="translate(444.433594 0)"/>
     <use xlink:href="#Arial-BoldMT-46" transform="translate(516.650391 0)"/>
     <use xlink:href="#Arial-BoldMT-20" transform="translate(577.734375 0)"/>
     <use xlink:href="#Arial-BoldMT-73" transform="translate(605.517578 0)"/>
     <use xlink:href="#Arial-BoldMT-75" transform="translate(661.132812 0)"/>
     <use xlink:href="#Arial-BoldMT-70" transform="translate(722.216797 0)"/>
     <use xlink:href="#Arial-BoldMT-65" transform="translate(783.300781 0)"/>
     <use xlink:href="#Arial-BoldMT-72" transform="translate(838.916016 0)"/>
     <use xlink:href="#Arial-BoldMT-66" transform="translate(877.832031 0)"/>
     <use xlink:href="#Arial-BoldMT-61" transform="translate(911.132812 0)"/>
     <use xlink:href="#Arial-BoldMT-6d" transform="translate(966.748047 0)"/>
     <use xlink:href="#Arial-BoldMT-69" transform="translate(1055.664062 0)"/>
     <use xlink:href="#Arial-BoldMT-6c" transform="translate(1083.447266 0)"/>
     <use xlink:href="#Arial-BoldMT-79" transform="translate(1111.230469 0)"/>
     <use xlink:href="#Arial-BoldMT-20" transform="translate(1166.845703 0)"/>
     <use xlink:href="#Arial-BoldMT-28" transform="translate(1194.628906 0)"/>
     <use xlink:href="#Arial-BoldMT-31" transform="translate(1227.929688 0)"/>
     <use xlink:href="#Arial-BoldMT-34" transform="translate(1283.544922 0)"/>
     <use xlink:href="#Arial-BoldMT-29" transform="translate(1339.160156 0)"/>
     <use xlink:href="#Arial-BoldMT-20" transform="translate(1372.460938 0)"/>
     <use xlink:href="#Arial-BoldMT-20" transform="translate(1400.244141 0)"/>
     <use xlink:href="#Arial-BoldMT-2014" transform="translate(1428.027344 0)"/>
     <use xlink:href="#Arial-BoldMT-20" transform="translate(1528.027344 0)"/>
     <use xlink:href="#Arial-BoldMT-20" transform="translate(1555.810547 0)"/>
     <use xlink:href="#Arial-BoldMT-33" transform="translate(1583.59375 0)"/>
     <use xlink:href="#Arial-BoldMT-25" transform="translate(1639.208984 0)"/>
    </g>
   </g>
   <g id="patch_11">
    <path d="M 723.432549 252.662203 
Q 661.526666 264.613646 599.620783 276.565089 
" style="fill: none; stroke: #666666; stroke-width: 0.8; stroke-linecap: round"/>
   </g>
   <g id="text_3">
    <!-- C-term: PDB (IL15) (1)  —  0.2% -->
    <g transform="translate(664.362798 247.715221) scale(0.14 -0.14)">
     <defs>
      <path id="Arial-BoldMT-50" d="M 466 0 
L 466 4581 
L 1950 4581 
Q 2794 4581 3050 4513 
Q 3444 4409 3709 4064 
Q 3975 3719 3975 3172 
Q 3975 2750 3822 2462 
Q 3669 2175 3433 2011 
Q 3197 1847 2953 1794 
Q 2622 1728 1994 1728 
L 1391 1728 
L 1391 0 
L 466 0 
z
M 1391 3806 
L 1391 2506 
L 1897 2506 
Q 2444 2506 2628 2578 
Q 2813 2650 2917 2803 
Q 3022 2956 3022 3159 
Q 3022 3409 2875 3571 
Q 2728 3734 2503 3775 
Q 2338 3806 1838 3806 
L 1391 3806 
z
" transform="scale(0.015625)"/>
      <path id="Arial-BoldMT-44" d="M 463 4581 
L 2153 4581 
Q 2725 4581 3025 4494 
Q 3428 4375 3715 4072 
Q 4003 3769 4153 3330 
Q 4303 2891 4303 2247 
Q 4303 1681 4163 1272 
Q 3991 772 3672 463 
Q 3431 228 3022 97 
Q 2716 0 2203 0 
L 463 0 
L 463 4581 
z
M 1388 3806 
L 1388 772 
L 2078 772 
Q 2466 772 2638 816 
Q 2863 872 3011 1006 
Q 3159 1141 3253 1448 
Q 3347 1756 3347 2288 
Q 3347 2819 3253 3103 
Q 3159 3388 2990 3547 
Q 2822 3706 2563 3763 
Q 2369 3806 1803 3806 
L 1388 3806 
z
" transform="scale(0.015625)"/>
      <path id="Arial-BoldMT-42" d="M 469 4581 
L 2300 4581 
Q 2844 4581 3111 4536 
Q 3378 4491 3589 4347 
Q 3800 4203 3940 3964 
Q 4081 3725 4081 3428 
Q 4081 3106 3907 2837 
Q 3734 2569 3438 2434 
Q 3856 2313 4081 2019 
Q 4306 1725 4306 1328 
Q 4306 1016 4161 720 
Q 4016 425 3764 248 
Q 3513 72 3144 31 
Q 2913 6 2028 0 
L 469 0 
L 469 4581 
z
M 1394 3819 
L 1394 2759 
L 2000 2759 
Q 2541 2759 2672 2775 
Q 2909 2803 3045 2939 
Q 3181 3075 3181 3297 
Q 3181 3509 3064 3642 
Q 2947 3775 2716 3803 
Q 2578 3819 1925 3819 
L 1394 3819 
z
M 1394 1997 
L 1394 772 
L 2250 772 
Q 2750 772 2884 800 
Q 3091 838 3220 983 
Q 3350 1128 3350 1372 
Q 3350 1578 3250 1722 
Q 3150 1866 2961 1931 
Q 2772 1997 2141 1997 
L 1394 1997 
z
" transform="scale(0.015625)"/>
      <path id="Arial-BoldMT-49" d="M 438 0 
L 438 4581 
L 1363 4581 
L 1363 0 
L 438 0 
z
" transform="scale(0.015625)"/>
      <path id="Arial-BoldMT-4c" d="M 491 0 
L 491 4544 
L 1416 4544 
L 1416 772 
L 3716 772 
L 3716 0 
L 491 0 
z
" transform="scale(0.015625)"/>
      <path id="Arial-BoldMT-35" d="M 284 1178 
L 1159 1269 
Q 1197 972 1381 798 
Q 1566 625 1806 625 
Q 2081 625 2272 848 
Q 2463 1072 2463 1522 
Q 2463 1944 2273 2155 
Q 2084 2366 1781 2366 
Q 1403 2366 1103 2031 
L 391 2134 
L 841 4519 
L 3163 4519 
L 3163 3697 
L 1506 3697 
L 1369 2919 
Q 1663 3066 1969 3066 
Q 2553 3066 2959 2641 
Q 3366 2216 3366 1538 
Q 3366 972 3038 528 
Q 2591 -78 1797 -78 
Q 1163 -78 763 262 
Q 363 603 284 1178 
z
" transform="scale(0.015625)"/>
      <path id="Arial-BoldMT-30" d="M 1756 4600 
Q 2422 4600 2797 4125 
Q 3244 3563 3244 2259 
Q 3244 959 2794 391 
Q 2422 -78 1756 -78 
Q 1088 -78 678 436 
Q 269 950 269 2269 
Q 269 3563 719 4131 
Q 1091 4600 1756 4600 
z
M 1756 3872 
Q 1597 3872 1472 3770 
Q 1347 3669 1278 3406 
Q 1188 3066 1188 2259 
Q 1188 1453 1269 1151 
Q 1350 850 1473 750 
Q 1597 650 1756 650 
Q 1916 650 2041 751 
Q 2166 853 2234 1116 
Q 2325 1453 2325 2259 
Q 2325 3066 2244 3367 
Q 2163 3669 2039 3770 
Q 1916 3872 1756 3872 
z
" transform="scale(0.015625)"/>
      <path id="Arial-BoldMT-2e" d="M 459 0 
L 459 878 
L 1338 878 
L 1338 0 
L 459 0 
z
" transform="scale(0.015625)"/>
      <path id="Arial-BoldMT-32" d="M 3238 816 
L 3238 0 
L 159 0 
Q 209 463 459 877 
Q 709 1291 1447 1975 
Q 2041 2528 2175 2725 
Q 2356 2997 2356 3263 
Q 2356 3556 2198 3714 
Q 2041 3872 1763 3872 
Q 1488 3872 1325 3706 
Q 1163 3541 1138 3156 
L 263 3244 
Q 341 3969 753 4284 
Q 1166 4600 1784 4600 
Q 2463 4600 2850 4234 
Q 3238 3869 3238 3325 
Q 3238 3016 3127 2736 
Q 3016 2456 2775 2150 
Q 2616 1947 2200 1565 
Q 1784 1184 1673 1059 
Q 1563 934 1494 816 
L 3238 816 
z
" transform="scale(0.015625)"/>
     </defs>
     <use xlink:href="#Arial-BoldMT-43"/>
     <use xlink:href="#Arial-BoldMT-2d" transform="translate(72.216797 0)"/>
     <use xlink:href="#Arial-BoldMT-74" transform="translate(105.517578 0)"/>
     <use xlink:href="#Arial-BoldMT-65" transform="translate(138.818359 0)"/>
     <use xlink:href="#Arial-BoldMT-72" transform="translate(194.433594 0)"/>
     <use xlink:href="#Arial-BoldMT-6d" transform="translate(233.349609 0)"/>
     <use xlink:href="#Arial-BoldMT-3a" transform="translate(322.265625 0)"/>
     <use xlink:href="#Arial-BoldMT-20" transform="translate(355.566406 0)"/>
     <use xlink:href="#Arial-BoldMT-50" transform="translate(383.349609 0)"/>
     <use xlink:href="#Arial-BoldMT-44" transform="translate(450.048828 0)"/>
     <use xlink:href="#Arial-BoldMT-42" transform="translate(522.265625 0)"/>
     <use xlink:href="#Arial-BoldMT-20" transform="translate(594.482422 0)"/>
     <use xlink:href="#Arial-BoldMT-28" transform="translate(622.265625 0)"/>
     <use xlink:href="#Arial-BoldMT-49" transform="translate(655.566406 0)"/>
     <use xlink:href="#Arial-BoldMT-4c" transform="translate(683.349609 0)"/>
     <use xlink:href="#Arial-BoldMT-31" transform="translate(744.433594 0)"/>
     <use xlink:href="#Arial-BoldMT-35" transform="translate(800.048828 0)"/>
     <use xlink:href="#Arial-BoldMT-29" transform="translate(855.664062 0)"/>
     <use xlink:href="#Arial-BoldMT-20" transform="translate(888.964844 0)"/>
     <use xlink:href="#Arial-BoldMT-28" transform="translate(916.748047 0)"/>
     <use xlink:href="#Arial-BoldMT-31" transform="translate(950.048828 0)"/>
     <use xlink:href="#Arial-BoldMT-29" transform="translate(1005.664062 0)"/>
     <use xlink:href="#Arial-BoldMT-20" transform="translate(1038.964844 0)"/>
     <use xlink:href="#Arial-BoldMT-20" transform="translate(1066.748047 0)"/>
     <use xlink:href="#Arial-BoldMT-2014" transform="translate(1094.53125 0)"/>
     <use xlink:href="#Arial-BoldMT-20" transform="translate(1194.53125 0)"/>
     <use xlink:href="#Arial-BoldMT-20" transform="translate(1222.314453 0)"/>
     <use xlink:href="#Arial-BoldMT-30" transform="translate(1250.097656 0)"/>
     <use xlink:href="#Arial-BoldMT-2e" transform="translate(1305.712891 0)"/>
     <use xlink:href="#Arial-BoldMT-32" transform="translate(1333.496094 0)"/>
     <use xlink:href="#Arial-BoldMT-25" transform="translate(1389.111328 0)"/>
    </g>
   </g>
   <g id="patch_12">
    <path d="M 706.842684 279.847802 
Q 657.641415 288.295073 608.440146 296.742344 
" style="fill: none; stroke: #666666; stroke-width: 0.8; stroke-linecap: round"/>
   </g>
   <g id="text_4">
    <!-- Both termini (14)  —  3% -->
    <g transform="translate(676.245729 274.901417) scale(0.14 -0.14)">
     <defs>
      <path id="Arial-BoldMT-68" d="M 1334 4581 
L 1334 2897 
Q 1759 3394 2350 3394 
Q 2653 3394 2897 3281 
Q 3141 3169 3264 2994 
Q 3388 2819 3433 2606 
Q 3478 2394 3478 1947 
L 3478 0 
L 2600 0 
L 2600 1753 
Q 2600 2275 2550 2415 
Q 2500 2556 2373 2639 
Q 2247 2722 2056 2722 
Q 1838 2722 1666 2615 
Q 1494 2509 1414 2295 
Q 1334 2081 1334 1663 
L 1334 0 
L 456 0 
L 456 4581 
L 1334 4581 
z
" transform="scale(0.015625)"/>
     </defs>
     <use xlink:href="#Arial-BoldMT-42"/>
     <use xlink:href="#Arial-BoldMT-6f" transform="translate(72.216797 0)"/>
     <use xlink:href="#Arial-BoldMT-74" transform="translate(133.300781 0)"/>
     <use xlink:href="#Arial-BoldMT-68" transform="translate(166.601562 0)"/>
     <use xlink:href="#Arial-BoldMT-20" transform="translate(227.685547 0)"/>
     <use xlink:href="#Arial-BoldMT-74" transform="translate(255.46875 0)"/>
     <use xlink:href="#Arial-BoldMT-65" transform="translate(288.769531 0)"/>
     <use xlink:href="#Arial-BoldMT-72" transform="translate(344.384766 0)"/>
     <use xlink:href="#Arial-BoldMT-6d" transform="translate(383.300781 0)"/>
     <use xlink:href="#Arial-BoldMT-69" transform="translate(472.216797 0)"/>
     <use xlink:href="#Arial-BoldMT-6e" transform="translate(500 0)"/>
     <use xlink:href="#Arial-BoldMT-69" transform="translate(561.083984 0)"/>
     <use xlink:href="#Arial-BoldMT-20" transform="translate(588.867188 0)"/>
     <use xlink:href="#Arial-BoldMT-28" transform="translate(616.650391 0)"/>
     <use xlink:href="#Arial-BoldMT-31" transform="translate(649.951172 0)"/>
     <use xlink:href="#Arial-BoldMT-34" transform="translate(705.566406 0)"/>
     <use xlink:href="#Arial-BoldMT-29" transform="translate(761.181641 0)"/>
     <use xlink:href="#Arial-BoldMT-20" transform="translate(794.482422 0)"/>
     <use xlink:href="#Arial-BoldMT-20" transform="translate(822.265625 0)"/>
     <use xlink:href="#Arial-BoldMT-2014" transform="translate(850.048828 0)"/>
     <use xlink:href="#Arial-BoldMT-20" transform="translate(950.048828 0)"/>
     <use xlink:href="#Arial-BoldMT-20" transform="translate(977.832031 0)"/>
     <use xlink:href="#Arial-BoldMT-33" transform="translate(1005.615234 0)"/>
     <use xlink:href="#Arial-BoldMT-25" transform="translate(1061.230469 0)"/>
    </g>
   </g>
   <g id="patch_13">
    <path d="M 685.928403 420.706494 
Q 651.520326 417.24348 617.112248 413.780466 
" style="fill: none; stroke: #666666; stroke-width: 0.8; stroke-linecap: round"/>
   </g>
   <g id="text_5">
    <!-- N-terminus (67)  —  15% -->
    <g transform="translate(687.930245 432.594886) scale(0.14 -0.14)">
     <defs>
      <path id="Arial-BoldMT-37" d="M 272 3703 
L 272 4519 
L 3275 4519 
L 3275 3881 
Q 2903 3516 2518 2831 
Q 2134 2147 1932 1376 
Q 1731 606 1734 0 
L 888 0 
Q 909 950 1279 1937 
Q 1650 2925 2269 3703 
L 272 3703 
z
" transform="scale(0.015625)"/>
     </defs>
     <use xlink:href="#Arial-BoldMT-4e"/>
     <use xlink:href="#Arial-BoldMT-2d" transform="translate(72.216797 0)"/>
     <use xlink:href="#Arial-BoldMT-74" transform="translate(105.517578 0)"/>
     <use xlink:href="#Arial-BoldMT-65" transform="translate(138.818359 0)"/>
     <use xlink:href="#Arial-BoldMT-72" transform="translate(194.433594 0)"/>
     <use xlink:href="#Arial-BoldMT-6d" transform="translate(233.349609 0)"/>
     <use xlink:href="#Arial-BoldMT-69" transform="translate(322.265625 0)"/>
     <use xlink:href="#Arial-BoldMT-6e" transform="translate(350.048828 0)"/>
     <use xlink:href="#Arial-BoldMT-75" transform="translate(411.132812 0)"/>
     <use xlink:href="#Arial-BoldMT-73" transform="translate(472.216797 0)"/>
     <use xlink:href="#Arial-BoldMT-20" transform="translate(527.832031 0)"/>
     <use xlink:href="#Arial-BoldMT-28" transform="translate(555.615234 0)"/>
     <use xlink:href="#Arial-BoldMT-36" transform="translate(588.916016 0)"/>
     <use xlink:href="#Arial-BoldMT-37" transform="translate(644.53125 0)"/>
     <use xlink:href="#Arial-BoldMT-29" transform="translate(700.146484 0)"/>
     <use xlink:href="#Arial-BoldMT-20" transform="translate(733.447266 0)"/>
     <use xlink:href="#Arial-BoldMT-20" transform="translate(761.230469 0)"/>
     <use xlink:href="#Arial-BoldMT-2014" transform="translate(789.013672 0)"/>
     <use xlink:href="#Arial-BoldMT-20" transform="translate(889.013672 0)"/>
     <use xlink:href="#Arial-BoldMT-20" transform="translate(916.796875 0)"/>
     <use xlink:href="#Arial-BoldMT-31" transform="translate(944.580078 0)"/>
     <use xlink:href="#Arial-BoldMT-35" transform="translate(1000.195312 0)"/>
     <use xlink:href="#Arial-BoldMT-25" transform="translate(1055.810547 0)"/>
    </g>
   </g>
   <g id="patch_14">
    <path d="M 269.583398 641.410652 
Q 332.611015 609.610276 395.638633 577.8099 
" style="fill: none; stroke: #666666; stroke-width: 0.8; stroke-linecap: round"/>
   </g>
   <g id="text_6">
    <!-- Neither (structural surface) (138)  —  31% -->
    <g transform="translate(115.672753 653.602966) scale(0.14 -0.14)">
     <defs>
      <path id="Arial-BoldMT-63" d="M 3353 2338 
L 2488 2181 
Q 2444 2441 2289 2572 
Q 2134 2703 1888 2703 
Q 1559 2703 1364 2476 
Q 1169 2250 1169 1719 
Q 1169 1128 1367 884 
Q 1566 641 1900 641 
Q 2150 641 2309 783 
Q 2469 925 2534 1272 
L 3397 1125 
Q 3263 531 2881 228 
Q 2500 -75 1859 -75 
Q 1131 -75 698 384 
Q 266 844 266 1656 
Q 266 2478 700 2936 
Q 1134 3394 1875 3394 
Q 2481 3394 2839 3133 
Q 3197 2872 3353 2338 
z
" transform="scale(0.015625)"/>
      <path id="Arial-BoldMT-38" d="M 1025 2472 
Q 684 2616 529 2867 
Q 375 3119 375 3419 
Q 375 3931 733 4265 
Q 1091 4600 1750 4600 
Q 2403 4600 2764 4265 
Q 3125 3931 3125 3419 
Q 3125 3100 2959 2851 
Q 2794 2603 2494 2472 
Q 2875 2319 3073 2025 
Q 3272 1731 3272 1347 
Q 3272 713 2867 316 
Q 2463 -81 1791 -81 
Q 1166 -81 750 247 
Q 259 634 259 1309 
Q 259 1681 443 1992 
Q 628 2303 1025 2472 
z
M 1206 3356 
Q 1206 3094 1354 2947 
Q 1503 2800 1750 2800 
Q 2000 2800 2150 2948 
Q 2300 3097 2300 3359 
Q 2300 3606 2151 3754 
Q 2003 3903 1759 3903 
Q 1506 3903 1356 3753 
Q 1206 3603 1206 3356 
z
M 1125 1394 
Q 1125 1031 1311 828 
Q 1497 625 1775 625 
Q 2047 625 2225 820 
Q 2403 1016 2403 1384 
Q 2403 1706 2222 1901 
Q 2041 2097 1763 2097 
Q 1441 2097 1283 1875 
Q 1125 1653 1125 1394 
z
" transform="scale(0.015625)"/>
     </defs>
     <use xlink:href="#Arial-BoldMT-4e"/>
     <use xlink:href="#Arial-BoldMT-65" transform="translate(72.216797 0)"/>
     <use xlink:href="#Arial-BoldMT-69" transform="translate(127.832031 0)"/>
     <use xlink:href="#Arial-BoldMT-74" transform="translate(155.615234 0)"/>
     <use xlink:href="#Arial-BoldMT-68" transform="translate(188.916016 0)"/>
     <use xlink:href="#Arial-BoldMT-65" transform="translate(250 0)"/>
     <use xlink:href="#Arial-BoldMT-72" transform="translate(305.615234 0)"/>
     <use xlink:href="#Arial-BoldMT-20" transform="translate(344.53125 0)"/>
     <use xlink:href="#Arial-BoldMT-28" transform="translate(372.314453 0)"/>
     <use xlink:href="#Arial-BoldMT-73" transform="translate(405.615234 0)"/>
     <use xlink:href="#Arial-BoldMT-74" transform="translate(461.230469 0)"/>
     <use xlink:href="#Arial-BoldMT-72" transform="translate(494.53125 0)"/>
     <use xlink:href="#Arial-BoldMT-75" transform="translate(533.447266 0)"/>
     <use xlink:href="#Arial-BoldMT-63" transform="translate(594.53125 0)"/>
     <use xlink:href="#Arial-BoldMT-74" transform="translate(650.146484 0)"/>
     <use xlink:href="#Arial-BoldMT-75" transform="translate(683.447266 0)"/>
     <use xlink:href="#Arial-BoldMT-72" transform="translate(744.53125 0)"/>
     <use xlink:href="#Arial-BoldMT-61" transform="translate(783.447266 0)"/>
     <use xlink:href="#Arial-BoldMT-6c" transform="translate(839.0625 0)"/>
     <use xlink:href="#Arial-BoldMT-20" transform="translate(866.845703 0)"/>
     <use xlink:href="#Arial-BoldMT-73" transform="translate(894.628906 0)"/>
     <use xlink:href="#Arial-BoldMT-75" transform="translate(950.244141 0)"/>
     <use xlink:href="#Arial-BoldMT-72" transform="translate(1011.328125 0)"/>
     <use xlink:href="#Arial-BoldMT-66" transform="translate(1050.244141 0)"/>
     <use xlink:href="#Arial-BoldMT-61" transform="translate(1083.544922 0)"/>
     <use xlink:href="#Arial-BoldMT-63" transform="translate(1139.160156 0)"/>
     <use xlink:href="#Arial-BoldMT-65" transform="translate(1194.775391 0)"/>
     <use xlink:href="#Arial-BoldMT-29" transform="translate(1250.390625 0)"/>
     <use xlink:href="#Arial-BoldMT-20" transform="translate(1283.691406 0)"/>
     <use xlink:href="#Arial-BoldMT-28" transform="translate(1311.474609 0)"/>
     <use xlink:href="#Arial-BoldMT-31" transform="translate(1344.775391 0)"/>
     <use xlink:href="#Arial-BoldMT-33" transform="translate(1400.390625 0)"/>
     <use xlink:href="#Arial-BoldMT-38" transform="translate(1456.005859 0)"/>
     <use xlink:href="#Arial-BoldMT-29" transform="translate(1511.621094 0)"/>
     <use xlink:href="#Arial-BoldMT-20" transform="translate(1544.921875 0)"/>
     <use xlink:href="#Arial-BoldMT-20" transform="translate(1572.705078 0)"/>
     <use xlink:href="#Arial-BoldMT-2014" transform="translate(1600.488281 0)"/>
     <use xlink:href="#Arial-BoldMT-20" transform="translate(1700.488281 0)"/>
     <use xlink:href="#Arial-BoldMT-20" transform="translate(1728.271484 0)"/>
     <use xlink:href="#Arial-BoldMT-33" transform="translate(1756.054688 0)"/>
     <use xlink:href="#Arial-BoldMT-31" transform="translate(1811.669922 0)"/>
     <use xlink:href="#Arial-BoldMT-25" transform="translate(1867.285156 0)"/>
    </g>
   </g>
   <g id="patch_15">
    <path d="M 125.161216 237.005492 
Q 179.160826 250.975365 233.160436 264.945238 
" style="fill: none; stroke: #666666; stroke-width: 0.8; stroke-linecap: round"/>
   </g>
   <g id="text_7">
    <!-- Unknown (148)  —  33% -->
    <g transform="translate(13.471011 232.059001) scale(0.14 -0.14)">
     <defs>
      <path id="Arial-BoldMT-55" d="M 459 4581 
L 1384 4581 
L 1384 2100 
Q 1384 1509 1419 1334 
Q 1478 1053 1701 883 
Q 1925 713 2313 713 
Q 2706 713 2906 873 
Q 3106 1034 3147 1268 
Q 3188 1503 3188 2047 
L 3188 4581 
L 4113 4581 
L 4113 2175 
Q 4113 1350 4038 1009 
Q 3963 669 3761 434 
Q 3559 200 3221 61 
Q 2884 -78 2341 -78 
Q 1684 -78 1345 73 
Q 1006 225 809 467 
Q 613 709 550 975 
Q 459 1369 459 2138 
L 459 4581 
z
" transform="scale(0.015625)"/>
      <path id="Arial-BoldMT-6b" d="M 428 0 
L 428 4581 
L 1306 4581 
L 1306 2150 
L 2334 3319 
L 3416 3319 
L 2281 2106 
L 3497 0 
L 2550 0 
L 1716 1491 
L 1306 1063 
L 1306 0 
L 428 0 
z
" transform="scale(0.015625)"/>
      <path id="Arial-BoldMT-77" d="M 1078 0 
L 28 3319 
L 881 3319 
L 1503 1144 
L 2075 3319 
L 2922 3319 
L 3475 1144 
L 4109 3319 
L 4975 3319 
L 3909 0 
L 3066 0 
L 2494 2134 
L 1931 0 
L 1078 0 
z
" transform="scale(0.015625)"/>
     </defs>
     <use xlink:href="#Arial-BoldMT-55"/>
     <use xlink:href="#Arial-BoldMT-6e" transform="translate(72.216797 0)"/>
     <use xlink:href="#Arial-BoldMT-6b" transform="translate(133.300781 0)"/>
     <use xlink:href="#Arial-BoldMT-6e" transform="translate(188.916016 0)"/>
     <use xlink:href="#Arial-BoldMT-6f" transform="translate(250 0)"/>
     <use xlink:href="#Arial-BoldMT-77" transform="translate(311.083984 0)"/>
     <use xlink:href="#Arial-BoldMT-6e" transform="translate(388.867188 0)"/>
     <use xlink:href="#Arial-BoldMT-20" transform="translate(449.951172 0)"/>
     <use xlink:href="#Arial-BoldMT-28" transform="translate(477.734375 0)"/>
     <use xlink:href="#Arial-BoldMT-31" transform="translate(511.035156 0)"/>
     <use xlink:href="#Arial-BoldMT-34" transform="translate(566.650391 0)"/>
     <use xlink:href="#Arial-BoldMT-38" transform="translate(622.265625 0)"/>
     <use xlink:href="#Arial-BoldMT-29" transform="translate(677.880859 0)"/>
     <use xlink:href="#Arial-BoldMT-20" transform="translate(711.181641 0)"/>
     <use xlink:href="#Arial-BoldMT-20" transform="translate(738.964844 0)"/>
     <use xlink:href="#Arial-BoldMT-2014" transform="translate(766.748047 0)"/>
     <use xlink:href="#Arial-BoldMT-20" transform="translate(866.748047 0)"/>
     <use xlink:href="#Arial-BoldMT-20" transform="translate(894.53125 0)"/>
     <use xlink:href="#Arial-BoldMT-33" transform="translate(922.314453 0)"/>
     <use xlink:href="#Arial-BoldMT-33" transform="translate(977.929688 0)"/>
     <use xlink:href="#Arial-BoldMT-25" transform="translate(1033.544922 0)"/>
    </g>
   </g>
   <g id="text_8">
    <!-- Receptor Binding Terminus — Potential FN Pool -->
    <g transform="translate(218.840617 19.368281) scale(0.17 -0.17)">
     <defs>
      <path id="Arial-BoldMT-52" d="M 469 0 
L 469 4581 
L 2416 4581 
Q 3150 4581 3483 4457 
Q 3816 4334 4016 4018 
Q 4216 3703 4216 3297 
Q 4216 2781 3912 2445 
Q 3609 2109 3006 2022 
Q 3306 1847 3501 1637 
Q 3697 1428 4028 894 
L 4588 0 
L 3481 0 
L 2813 997 
Q 2456 1531 2325 1670 
Q 2194 1809 2047 1861 
Q 1900 1913 1581 1913 
L 1394 1913 
L 1394 0 
L 469 0 
z
M 1394 2644 
L 2078 2644 
Q 2744 2644 2909 2700 
Q 3075 2756 3169 2893 
Q 3263 3031 3263 3238 
Q 3263 3469 3139 3611 
Q 3016 3753 2791 3791 
Q 2678 3806 2116 3806 
L 1394 3806 
L 1394 2644 
z
" transform="scale(0.015625)"/>
      <path id="Arial-BoldMT-67" d="M 378 -219 
L 1381 -341 
Q 1406 -516 1497 -581 
Q 1622 -675 1891 -675 
Q 2234 -675 2406 -572 
Q 2522 -503 2581 -350 
Q 2622 -241 2622 53 
L 2622 538 
Q 2228 0 1628 0 
Q 959 0 569 566 
Q 263 1013 263 1678 
Q 263 2513 664 2953 
Q 1066 3394 1663 3394 
Q 2278 3394 2678 2853 
L 2678 3319 
L 3500 3319 
L 3500 341 
Q 3500 -247 3403 -537 
Q 3306 -828 3131 -993 
Q 2956 -1159 2664 -1253 
Q 2372 -1347 1925 -1347 
Q 1081 -1347 728 -1058 
Q 375 -769 375 -325 
Q 375 -281 378 -219 
z
M 1163 1728 
Q 1163 1200 1367 954 
Q 1572 709 1872 709 
Q 2194 709 2416 961 
Q 2638 1213 2638 1706 
Q 2638 2222 2425 2472 
Q 2213 2722 1888 2722 
Q 1572 2722 1367 2476 
Q 1163 2231 1163 1728 
z
" transform="scale(0.015625)"/>
     </defs>
     <use xlink:href="#Arial-BoldMT-52"/>
     <use xlink:href="#Arial-BoldMT-65" transform="translate(72.216797 0)"/>
     <use xlink:href="#Arial-BoldMT-63" transform="translate(127.832031 0)"/>
     <use xlink:href="#Arial-BoldMT-65" transform="translate(183.447266 0)"/>
     <use xlink:href="#Arial-BoldMT-70" transform="translate(239.0625 0)"/>
     <use xlink:href="#Arial-BoldMT-74" transform="translate(300.146484 0)"/>
     <use xlink:href="#Arial-BoldMT-6f" transform="translate(333.447266 0)"/>
     <use xlink:href="#Arial-BoldMT-72" transform="translate(394.53125 0)"/>
     <use xlink:href="#Arial-BoldMT-20" transform="translate(433.447266 0)"/>
     <use xlink:href="#Arial-BoldMT-42" transform="translate(461.230469 0)"/>
     <use xlink:href="#Arial-BoldMT-69" transform="translate(533.447266 0)"/>
     <use xlink:href="#Arial-BoldMT-6e" transform="translate(561.230469 0)"/>
     <use xlink:href="#Arial-BoldMT-64" transform="translate(622.314453 0)"/>
     <use xlink:href="#Arial-BoldMT-69" transform="translate(683.398438 0)"/>
     <use xlink:href="#Arial-BoldMT-6e" transform="translate(711.181641 0)"/>
     <use xlink:href="#Arial-BoldMT-67" transform="translate(772.265625 0)"/>
     <use xlink:href="#Arial-BoldMT-20" transform="translate(833.349609 0)"/>
     <use xlink:href="#Arial-BoldMT-54" transform="translate(861.132812 0)"/>
     <use xlink:href="#Arial-BoldMT-65" transform="translate(914.841797 0)"/>
     <use xlink:href="#Arial-BoldMT-72" transform="translate(970.457031 0)"/>
     <use xlink:href="#Arial-BoldMT-6d" transform="translate(1009.373047 0)"/>
     <use xlink:href="#Arial-BoldMT-69" transform="translate(1098.289062 0)"/>
     <use xlink:href="#Arial-BoldMT-6e" transform="translate(1126.072266 0)"/>
     <use xlink:href="#Arial-BoldMT-75" transform="translate(1187.15625 0)"/>
     <use xlink:href="#Arial-BoldMT-73" transform="translate(1248.240234 0)"/>
     <use xlink:href="#Arial-BoldMT-20" transform="translate(1303.855469 0)"/>
     <use xlink:href="#Arial-BoldMT-2014" transform="translate(1331.638672 0)"/>
     <use xlink:href="#Arial-BoldMT-20" transform="translate(1431.638672 0)"/>
     <use xlink:href="#Arial-BoldMT-50" transform="translate(1459.421875 0)"/>
     <use xlink:href="#Arial-BoldMT-6f" transform="translate(1526.121094 0)"/>
     <use xlink:href="#Arial-BoldMT-74" transform="translate(1587.205078 0)"/>
     <use xlink:href="#Arial-BoldMT-65" transform="translate(1620.505859 0)"/>
     <use xlink:href="#Arial-BoldMT-6e" transform="translate(1676.121094 0)"/>
     <use xlink:href="#Arial-BoldMT-74" transform="translate(1737.205078 0)"/>
     <use xlink:href="#Arial-BoldMT-69" transform="translate(1770.505859 0)"/>
     <use xlink:href="#Arial-BoldMT-61" transform="translate(1798.289062 0)"/>
     <use xlink:href="#Arial-BoldMT-6c" transform="translate(1853.904297 0)"/>
     <use xlink:href="#Arial-BoldMT-20" transform="translate(1881.6875 0)"/>
     <use xlink:href="#Arial-BoldMT-46" transform="translate(1909.470703 0)"/>
     <use xlink:href="#Arial-BoldMT-4e" transform="translate(1970.554688 0)"/>
     <use xlink:href="#Arial-BoldMT-20" transform="translate(2042.771484 0)"/>
     <use xlink:href="#Arial-BoldMT-50" transform="translate(2070.554688 0)"/>
     <use xlink:href="#Arial-BoldMT-6f" transform="translate(2137.253906 0)"/>
     <use xlink:href="#Arial-BoldMT-6f" transform="translate(2198.337891 0)"/>
     <use xlink:href="#Arial-BoldMT-6c" transform="translate(2259.421875 0)"/>
    </g>
    <!-- (446 ligand constructs; C-terminus split into rationale subgroups) -->
    <g transform="translate(148.318507 37.796813) scale(0.17 -0.17)">
     <defs>
      <path id="Arial-BoldMT-3b" d="M 603 2441 
L 603 3319 
L 1481 3319 
L 1481 2441 
L 603 2441 
z
M 603 878 
L 1481 878 
L 1481 250 
Q 1481 -131 1415 -351 
Q 1350 -572 1167 -747 
Q 984 -922 703 -1022 
L 531 -659 
Q 797 -572 909 -415 
Q 1022 -259 1028 0 
L 603 0 
L 603 878 
z
" transform="scale(0.015625)"/>
      <path id="Arial-BoldMT-62" d="M 422 0 
L 422 4581 
L 1300 4581 
L 1300 2931 
Q 1706 3394 2263 3394 
Q 2869 3394 3266 2955 
Q 3663 2516 3663 1694 
Q 3663 844 3258 384 
Q 2853 -75 2275 -75 
Q 1991 -75 1714 67 
Q 1438 209 1238 488 
L 1238 0 
L 422 0 
z
M 1294 1731 
Q 1294 1216 1456 969 
Q 1684 619 2063 619 
Q 2353 619 2558 867 
Q 2763 1116 2763 1650 
Q 2763 2219 2556 2470 
Q 2350 2722 2028 2722 
Q 1713 2722 1503 2476 
Q 1294 2231 1294 1731 
z
" transform="scale(0.015625)"/>
     </defs>
     <use xlink:href="#Arial-BoldMT-28"/>
     <use xlink:href="#Arial-BoldMT-34" transform="translate(33.300781 0)"/>
     <use xlink:href="#Arial-BoldMT-34" transform="translate(88.916016 0)"/>
     <use xlink:href="#Arial-BoldMT-36" transform="translate(144.53125 0)"/>
     <use xlink:href="#Arial-BoldMT-20" transform="translate(200.146484 0)"/>
     <use xlink:href="#Arial-BoldMT-6c" transform="translate(227.929688 0)"/>
     <use xlink:href="#Arial-BoldMT-69" transform="translate(255.712891 0)"/>
     <use xlink:href="#Arial-BoldMT-67" transform="translate(283.496094 0)"/>
     <use xlink:href="#Arial-BoldMT-61" transform="translate(344.580078 0)"/>
     <use xlink:href="#Arial-BoldMT-6e" transform="translate(400.195312 0)"/>
     <use xlink:href="#Arial-BoldMT-64" transform="translate(461.279297 0)"/>
     <use xlink:href="#Arial-BoldMT-20" transform="translate(522.363281 0)"/>
     <use xlink:href="#Arial-BoldMT-63" transform="translate(550.146484 0)"/>
     <use xlink:href="#Arial-BoldMT-6f" transform="translate(605.761719 0)"/>
     <use xlink:href="#Arial-BoldMT-6e" transform="translate(666.845703 0)"/>
     <use xlink:href="#Arial-BoldMT-73" transform="translate(727.929688 0)"/>
     <use xlink:href="#Arial-BoldMT-74" transform="translate(783.544922 0)"/>
     <use xlink:href="#Arial-BoldMT-72" transform="translate(816.845703 0)"/>
     <use xlink:href="#Arial-BoldMT-75" transform="translate(855.761719 0)"/>
     <use xlink:href="#Arial-BoldMT-63" transform="translate(916.845703 0)"/>
     <use xlink:href="#Arial-BoldMT-74" transform="translate(972.460938 0)"/>
     <use xlink:href="#Arial-BoldMT-73" transform="translate(1005.761719 0)"/>
     <use xlink:href="#Arial-BoldMT-3b" transform="translate(1061.376953 0)"/>
     <use xlink:href="#Arial-BoldMT-20" transform="translate(1094.677734 0)"/>
     <use xlink:href="#Arial-BoldMT-43" transform="translate(1122.460938 0)"/>
     <use xlink:href="#Arial-BoldMT-2d" transform="translate(1194.677734 0)"/>
     <use xlink:href="#Arial-BoldMT-74" transform="translate(1227.978516 0)"/>
     <use xlink:href="#Arial-BoldMT-65" transform="translate(1261.279297 0)"/>
     <use xlink:href="#Arial-BoldMT-72" transform="translate(1316.894531 0)"/>
     <use xlink:href="#Arial-BoldMT-6d" transform="translate(1355.810547 0)"/>
     <use xlink:href="#Arial-BoldMT-69" transform="translate(1444.726562 0)"/>
     <use xlink:href="#Arial-BoldMT-6e" transform="translate(1472.509766 0)"/>
     <use xlink:href="#Arial-BoldMT-75" transform="translate(1533.59375 0)"/>
     <use xlink:href="#Arial-BoldMT-73" transform="translate(1594.677734 0)"/>
     <use xlink:href="#Arial-BoldMT-20" transform="translate(1650.292969 0)"/>
     <use xlink:href="#Arial-BoldMT-73" transform="translate(1678.076172 0)"/>
     <use xlink:href="#Arial-BoldMT-70" transform="translate(1733.691406 0)"/>
     <use xlink:href="#Arial-BoldMT-6c" transform="translate(1794.775391 0)"/>
     <use xlink:href="#Arial-BoldMT-69" transform="translate(1822.558594 0)"/>
     <use xlink:href="#Arial-BoldMT-74" transform="translate(1850.341797 0)"/>
     <use xlink:href="#Arial-BoldMT-20" transform="translate(1883.642578 0)"/>
     <use xlink:href="#Arial-BoldMT-69" transform="translate(1911.425781 0)"/>
     <use xlink:href="#Arial-BoldMT-6e" transform="translate(1939.208984 0)"/>
     <use xlink:href="#Arial-BoldMT-74" transform="translate(2000.292969 0)"/>
     <use xlink:href="#Arial-BoldMT-6f" transform="translate(2033.59375 0)"/>
     <use xlink:href="#Arial-BoldMT-20" transform="translate(2094.677734 0)"/>
     <use xlink:href="#Arial-BoldMT-72" transform="translate(2122.460938 0)"/>
     <use xlink:href="#Arial-BoldMT-61" transform="translate(2161.376953 0)"/>
     <use xlink:href="#Arial-BoldMT-74" transform="translate(2216.992188 0)"/>
     <use xlink:href="#Arial-BoldMT-69" transform="translate(2250.292969 0)"/>
     <use xlink:href="#Arial-BoldMT-6f" transform="translate(2278.076172 0)"/>
     <use xlink:href="#Arial-BoldMT-6e" transform="translate(2339.160156 0)"/>
     <use xlink:href="#Arial-BoldMT-61" transform="translate(2400.244141 0)"/>
     <use xlink:href="#Arial-BoldMT-6c" transform="translate(2455.859375 0)"/>
     <use xlink:href="#Arial-BoldMT-65" transform="translate(2483.642578 0)"/>
     <use xlink:href="#Arial-BoldMT-20" transform="translate(2539.257812 0)"/>
     <use xlink:href="#Arial-BoldMT-73" transform="translate(2567.041016 0)"/>
     <use xlink:href="#Arial-BoldMT-75" transform="translate(2622.65625 0)"/>
     <use xlink:href="#Arial-BoldMT-62" transform="translate(2683.740234 0)"/>
     <use xlink:href="#Arial-BoldMT-67" transform="translate(2744.824219 0)"/>
     <use xlink:href="#Arial-BoldMT-72" transform="translate(2805.908203 0)"/>
     <use xlink:href="#Arial-BoldMT-6f" transform="translate(2844.824219 0)"/>
     <use xlink:href="#Arial-BoldMT-75" transform="translate(2905.908203 0)"/>
     <use xlink:href="#Arial-BoldMT-70" transform="translate(2966.992188 0)"/>
     <use xlink:href="#Arial-BoldMT-73" transform="translate(3028.076172 0)"/>
     <use xlink:href="#Arial-BoldMT-29" transform="translate(3083.691406 0)"/>
    </g>
   </g>
  </g>
 </g>
</svg>
